<?xml version="1.0" standalone="no"?>
<!DOCTYPE svg PUBLIC "-//W3C//DTD SVG 20010904//EN"
 "http://www.w3.org/TR/2001/REC-SVG-20010904/DTD/svg10.dtd">
<svg version="1.0" xmlns="http://www.w3.org/2000/svg"
 width="920.000000pt" height="920.000000pt" viewBox="0 0 920.000000 920.000000"
 preserveAspectRatio="xMidYMid meet">

<g transform="translate(0.000000,920.000000) scale(0.100000,-0.100000)"
fill="#000000" stroke="none">
<path d="M7033 8690 c-19 -11 -35 -32 -41 -52 -5 -18 -42 -112 -82 -208 -40
-96 -94 -227 -120 -290 -26 -63 -103 -248 -170 -410 -67 -162 -175 -423 -240
-580 -65 -157 -140 -339 -168 -405 -27 -66 -110 -264 -182 -440 -115 -278
-359 -867 -495 -1195 -24 -58 -76 -181 -114 -274 -39 -93 -74 -186 -77 -207
-6 -33 -3 -42 24 -69 l30 -30 951 0 951 0 29 28 c21 18 49 73 89 172 66 161
130 316 587 1420 174 421 363 878 420 1015 57 138 161 387 230 555 272 653
365 884 365 902 0 30 -18 56 -50 73 -25 13 -150 15 -967 15 -911 0 -939 -1
-970 -20z m1754 -177 c-4 -16 -265 -648 -492 -1193 -71 -171 -201 -484 -520
-1255 -368 -889 -509 -1228 -545 -1312 l-19 -43 -820 0 c-452 0 -821 3 -821 6
0 9 88 224 270 664 150 361 296 712 597 1440 85 206 211 510 280 675 68 165
192 465 276 668 l151 367 824 0 c780 0 824 -1 819 -17z"/>
<path d="M253 6731 c-22 -14 -34 -30 -38 -54 -7 -35 13 -84 260 -662 23 -55
92 -217 153 -360 60 -143 155 -366 210 -495 269 -635 332 -784 487 -1150 92
-217 191 -451 220 -520 51 -120 212 -498 392 -925 47 -110 100 -234 118 -275
l34 -76 -112 -264 c-62 -146 -152 -357 -200 -470 -47 -113 -147 -348 -222
-523 -83 -196 -135 -331 -135 -352 0 -25 8 -40 31 -59 l31 -26 853 0 853 0 31
26 c17 14 31 32 31 39 0 7 13 44 29 81 16 38 133 321 261 629 128 308 338 814
467 1125 254 612 403 971 593 1430 67 162 156 376 197 475 94 225 227 546 440
1060 91 220 210 508 265 640 276 666 260 623 248 660 -23 69 32 65 -898 65
l-839 0 -33 -22 c-30 -21 -44 -50 -132 -273 -54 -137 -252 -639 -440 -1115
-188 -476 -355 -902 -372 -947 -22 -60 -33 -79 -39 -68 -4 9 -37 88 -71 178
-71 182 -341 872 -387 987 -16 41 -130 331 -252 644 -187 479 -226 572 -250
590 -28 21 -32 21 -890 24 -841 2 -863 2 -894 -17z m1786 -453 c63 -161 137
-354 166 -428 147 -375 497 -1270 599 -1529 63 -161 125 -304 137 -317 29 -31
90 -33 119 -4 25 25 -7 -54 400 980 192 487 411 1043 487 1235 l139 350 722 3
c397 1 722 -1 722 -4 0 -3 -88 -218 -196 -477 -108 -260 -245 -591 -306 -737
-61 -146 -143 -344 -183 -440 -87 -208 -283 -680 -500 -1205 -189 -456 -395
-955 -730 -1760 -73 -176 -190 -457 -259 -625 -70 -168 -157 -376 -193 -463
l-67 -157 -723 0 c-398 0 -723 4 -723 8 0 5 22 60 49 123 140 330 391 924 456
1079 29 69 64 149 79 178 40 79 44 135 14 208 -14 32 -128 300 -253 594 -215
506 -265 623 -390 920 -29 69 -173 409 -320 755 -147 347 -299 704 -337 795
-38 91 -95 224 -125 295 -30 72 -77 182 -103 245 -27 63 -99 232 -160 375 -61
143 -114 268 -117 278 -5 16 35 17 739 17 l744 0 113 -292z"/>
<path d="M5790 4310 c-151 -16 -263 -51 -412 -127 -290 -150 -482 -396 -574
-738 -24 -88 -27 -120 -28 -260 -1 -120 3 -177 16 -230 130 -530 546 -876
1053 -875 336 1 607 110 838 338 96 93 151 170 207 287 104 212 143 478 104
700 -61 351 -272 640 -579 793 -180 90 -425 134 -625 112z m229 -180 c220 -29
374 -99 520 -236 232 -218 328 -509 276 -834 -35 -214 -111 -365 -256 -510
-207 -206 -436 -294 -739 -286 -293 9 -536 142 -695 381 -189 283 -224 577
-106 880 88 229 247 402 466 509 187 92 346 120 534 96z"/>
</g>
</svg>
